<svg width="105" height="54" xmlns="http://www.w3.org/2000/svg" xmlns:xlink="http://www.w3.org/1999/xlink"><defs><path id="a" d="M10 1H0V.5h10V1z"/><path id="c" d="M0 52h105V0H0z"/><path id="e" d="M10 1H0V.5h10z"/></defs><g fill="none" fill-rule="evenodd"><path fill="#E5EDD3" d="M43 49h62V.999H43z"/><g transform="translate(0 1)"><g transform="translate(49 51)"><mask id="b" fill="#fff"><use xlink:href="#a"/></mask><path d="M10 .5H0" stroke="#697A88" stroke-linejoin="round" mask="url(#b)"/></g><mask id="d" fill="#fff"><use xlink:href="#c"/></mask><path stroke="#697A88" stroke-linejoin="round" mask="url(#d)" d="M.5 41.5h49v-35H.5z"/></g><path stroke="#697A88" stroke-linejoin="round" d="M91.475 17v19.5h-34.95V17"/><path stroke="#697A88" stroke-linejoin="round" d="M52 7.5h46.5v35H52"/><g transform="translate(89 52)"><mask id="f" fill="#fff"><use xlink:href="#e"/></mask><path d="M10 .5H0" stroke="#697A88" stroke-linejoin="round" mask="url(#f)"/></g><path d="M56.474 13.5l14.611 11.96a4.532 4.532 0 0 0 5.779 0l14.61-11.96h-35zM56.994 36l9.273-9.727M90.994 36l-9.273-9.727M6.494 30V20" stroke="#697A88" stroke-linejoin="round"/></g></svg>