<svg width="103" height="59" xmlns="http://www.w3.org/2000/svg" xmlns:xlink="http://www.w3.org/1999/xlink"><defs><path id="a" d="M10 1H0V.5h10z"/></defs><g fill="none" fill-rule="evenodd"><path fill="#CCDFDF" d="M21 0v13H0v45h48V32h36V0z"/><path d="M33.448 28.538L26.5 35.497a3.538 3.538 0 0 1-5.003.003l-15.022-15H25M6.994 51.5L16.267 35M40.994 51.5L31.721 35" stroke="#697A88" stroke-linejoin="round"/><path stroke="#697A88" stroke-linejoin="round" d="M41.5 29v22.5h-35V24M77.475 9.543v16.958h-49.93V9.543"/><path d="M27.474 6.5l22.458 12.537a5.215 5.215 0 0 0 5.084 0L77.475 6.5h-50zM27.5 26.5l13.247-8.458M77.5 26.5l-13.247-8.458M53.5 37.5l12.524 10.167a3.909 3.909 0 0 0 4.952 0L83.5 37.5h-30z" stroke="#697A88" stroke-linejoin="round"/><path stroke="#697A88" stroke-linejoin="round" d="M83.5 41.5v16h-30v-16M54.5 56.5l7-7M82.5 56.5l-7-7M97 37.5H87"/><g transform="translate(87 57)"><mask id="b" fill="#fff"><use xlink:href="#a"/></mask><path d="M10 .5H0" stroke="#697A88" stroke-linejoin="round" mask="url(#b)"/></g><path d="M103 47.5H87" stroke="#697A88" stroke-linejoin="round"/></g></svg>