<svg width="96" height="72" xmlns="http://www.w3.org/2000/svg" xmlns:xlink="http://www.w3.org/1999/xlink"><defs><path id="a" d="M0 72h95.899V0H0z"/></defs><g fill="none" fill-rule="evenodd"><path d="M88 43.479c-.011-6.941-5.26-12.644-12-13.39v-.09H13v.048C5.768 30.313-.012 36.25 0 43.544c.012 7.28 5.787 13.188 13 13.453V57h.068c.152.005.3.023.453.023.144-.001.283-.018.426-.023H76v-.087c6.758-.748 12.011-6.478 12-13.434" fill="#FFCD96"/><path d="M22.5 43.508a9 9 0 1 1-18 .028 9 9 0 0 1 18-.028z" stroke="#697A88" stroke-linejoin="round"/><path d="M20.486 34.508l54-.087a9 9 0 0 1 .028 18l-54 .087" stroke="#697A88" stroke-linejoin="round"/><path stroke="#697A88" stroke-linejoin="round" d="M13.5 43.522l-.035-19 36-.047-.017-4"/><mask id="b" fill="#fff"><use xlink:href="#a"/></mask><path stroke="#697A88" stroke-linejoin="round" mask="url(#b)" d="M45.5 20.5h8V.5h-8z"/><path stroke="#697A88" stroke-linecap="round" stroke-linejoin="round" mask="url(#b)" d="M83.399 59.538l12 11.962H28.763l-12-11.962M39.126 68.74l-9-8.972M52.49 68.74l-9-8.972M65.853 68.74l-9-8.972M79.217 68.74l-9-8.972"/></g></svg>