<svg width="80" height="68" xmlns="http://www.w3.org/2000/svg" xmlns:xlink="http://www.w3.org/1999/xlink"><defs><path id="a" d="M0 68h79.354V0H0z"/></defs><g fill="none" fill-rule="evenodd"><path d="M55.354 40.5c0 15.188-12.312 27.5-27.5 27.5S.354 55.688.354 40.5 12.666 13 27.854 13s27.5 12.312 27.5 27.5z" fill="#FFCD96"/><path d="M27.89 61.5c-11.58 0-21-9.421-21-21s9.42-21 21-21c11.578 0 21 9.421 21 21M24.89 6.5v5M30.89 6.5v5" stroke="#697A88" stroke-linejoin="round"/><mask id="b" fill="#fff"><use xlink:href="#a"/></mask><path stroke="#697A88" stroke-linejoin="round" mask="url(#b)" d="M18.889 6.5h18v-6h-18zM8.89 15.5l-5-5M.353 14.036l7.071-7.071M46.89 15.5l5-5M55.425 14.036l-7.071-7.071M48.854 47.5l12.524 10.167a3.909 3.909 0 0 0 4.952 0L78.854 47.5h-30z"/><path stroke="#697A88" stroke-linejoin="round" mask="url(#b)" d="M78.854 51.5v16h-30v-16M49.854 66.5l7-7M77.854 66.5l-7-7M45.354 47.5h-10M45.354 67.5h-10M45.354 57.5h-16M27.8 23.759v17.393l12-12.05"/></g></svg>