<svg width="92" height="62" xmlns="http://www.w3.org/2000/svg" xmlns:xlink="http://www.w3.org/1999/xlink"><defs><path id="a" d="M46 62H0V0h92v62z"/><path id="c" d="M0 62h92V0H0z"/></defs><g fill="none" fill-rule="evenodd"><mask id="b" fill="#fff"><use xlink:href="#a"/></mask><path d="M4.072 62A4.077 4.077 0 0 1 0 57.928V4.072A4.077 4.077 0 0 1 4.072 0h83.857a4.076 4.076 0 0 1 4.07 4.072v53.856A4.076 4.076 0 0 1 87.93 62H4.072z" fill="#CCDFDF" mask="url(#b)"/><path d="M26.5 14.5l12.524 10.167a3.909 3.909 0 0 0 4.952 0L56.5 14.5h-30z" stroke="#697A88" stroke-linejoin="round"/><path stroke="#697A88" stroke-linejoin="round" d="M56.5 18.5v16h-30v-16M27.5 33.5l7-7M55.5 33.5l-7-7"/><path stroke="#697A88" stroke-linejoin="round" d="M23.5 30.5l-5.125-6H7.5v29h38V37"/><mask id="d" fill="#fff"><use xlink:href="#c"/></mask><path stroke="#697A88" stroke-linejoin="round" mask="url(#d)" d="M61.5 53.5h22v-33h-22z"/><path stroke="#697A88" stroke-linejoin="round" mask="url(#d)" d="M76.5 27.5h7v-7h-7zM78.5 22.5l3 3M64 30.5h17M64 35.5h17M64 40.5h17M64 45.5h17M3.072 7.5h85.857"/></g></svg>