<svg width="98" height="96" xmlns="http://www.w3.org/2000/svg"><g fill="none" fill-rule="evenodd"><path d="M49.877 87.922C49.582 87.845 21 80.092 21 53.5V21h59v32.5c0 26.592-28.581 34.345-28.87 34.42l-.63.16-.623-.158z" fill="#FFCD96"/><path d="M49.84 81.107C44.599 79.302 27.5 71.977 27.5 53.5v-26h46v26c0 18.377-17.107 25.775-22.35 27.605l-.654.23-.656-.228z" stroke="#697A88" stroke-linejoin="round"/><path d="M35.5 38.5l12.524 10.167a3.909 3.909 0 0 0 4.952 0L65.5 38.5h-30z" stroke="#697A88" stroke-linejoin="round"/><path stroke="#697A88" stroke-linejoin="round" d="M65.5 42.5v16h-30v-16M36.5 57.5l7-7M64.5 57.5l-7-7M93.543 91.543L81 79M82 71.5h16M73.5 80v16M4.457 4.457L17 17M24.5 16V0M16 24.5H0"/></g></svg>