<svg width="78" height="77" xmlns="http://www.w3.org/2000/svg" xmlns:xlink="http://www.w3.org/1999/xlink"><defs><path id="a" d="M21.5 77H0V0h43v77z"/><path id="c" d="M0 77h78V0H0z"/></defs><g fill="none" fill-rule="evenodd"><mask id="b" fill="#fff"><use xlink:href="#a"/></mask><path d="M7.446 77C3.34 77 0 73.66 0 69.555V7.445C0 3.34 3.34 0 7.446 0h28.109C39.66 0 43 3.34 43 7.445v62.11C43 73.66 39.66 77 35.555 77H7.445z" fill="#CCDFDF" mask="url(#b)"/><path d="M39 12.5H4M4 59.5h35M16 7.5h11" stroke="#697A88" stroke-linejoin="round"/><mask id="d" fill="#fff"><use xlink:href="#c"/></mask><path stroke="#697A88" stroke-linejoin="round" mask="url(#d)" d="M14.5 51.5h63v-20h-63zM30.5 37.5l-8 8M22.5 37.5l8 8M42.5 37.5l-8 8M34.5 37.5l8 8M54.5 37.5l-8 8M46.5 37.5l8 8M60 44.5h11M24.5 67.5a3 3 0 1 1-6 0 3 3 0 0 1 6 0z"/></g></svg>