<svg xmlns="http://www.w3.org/2000/svg" data-name="Layer 1" viewBox="0 0 512 512"><defs><clipPath id="a"><rect width="512" height="512" fill="none"/></clipPath><clipPath id="b"><path fill="none" d="M52.253,256c0,112.667,91.335,204.002,204.002,204.002S460.256,368.667,460.256,256,368.922,51.998,256.255,51.998,52.253,143.333,52.253,256"/></clipPath></defs><g clip-path="url(#a)"><g clip-path="url(#a)"><path fill="#fff9e7" d="M459.25629,256c0,112.667-91.334,204.001-204.001,204.001S51.2533,368.667,51.2533,256s91.335-204.001,204.002-204.001,204.001,91.334,204.001,204.001"/></g><g clip-path="url(#b)"><path d="M211.80659 164.8179c2.323 2.632 4.59 5.309 6.84 7.999q3.3705 4.03645 6.651 8.144 3.297 4.095 6.52 8.247c2.161 2.758 4.283 5.547 6.409 8.332l1.553 2.034-2.433-.736q-5.84251-1.76852-11.657-3.636c-1.936-.633-3.873-1.259-5.798-1.928-1.926-.661-3.858-1.305-5.773-2.009 1.995.426 3.973.911 5.955 1.381 1.985.461 3.957.965 5.931 1.463q5.919 1.51049 11.8 3.145l-.881 1.297c-2.168-2.753-4.341-5.502-6.475-8.281q-3.21-4.16254-6.365-8.368-3.153-4.206-6.233-8.469c-2.044-2.848-4.073-5.709-6.044-8.615M304.5 164.8179c-2.113 3.088-4.283 6.132-6.469 9.164q-3.285 4.54354-6.659 9.017-3.357 4.48654-6.789 8.915c-2.276 2.962-4.59 5.894-6.9 8.829l-.949-1.274q5.769-2.1465 11.574-4.195c1.939-.674 3.876-1.354 5.829-1.992 1.949-.646 3.892-1.308 5.859-1.912-1.862.874-3.746 1.69-5.624 2.522-1.874.841-3.766 1.638-5.654 2.443q-5.67151 2.39548-11.39 4.672l-2.77 1.11 1.821-2.384c2.268-2.968 4.532-5.939 6.834-8.881q3.4455-4.419 6.946-8.795 3.501-4.374 7.076-8.693c2.391-2.872 4.8-5.731 7.265-8.546M244.0791 209.3364s14.873 21.693 29.378.787z"/><path fill="#827ab9" d="M422.75491,484.1611s-16.939-162.298-52.058-181.453c-35.118-19.155-64.915-31.571-64.915-31.571l-5.261,4.136a70.39581,70.39581,0,0,1-87.527-.414l-4.644-3.722s-29.797,12.416-64.915,31.571-52.7,139.522-52.7,139.522"/><polygon points="152.735 346.694 152.735 441.629 145.245 460.615 152.735 346.694"/><polygon points="352.55 346.694 352.55 441.629 360.04 460.615 352.55 346.694"/><path d="M212.5083,169.78421s39.239-20.247,47.197-33.347a23.2946,23.2946,0,0,1,27.405-10.195c3.421,1.191,6.187,3.059,7.34,5.941,4.257,10.642,9.223,30.861,8.514,37.601,0,0,5.675,5.321,6.739-25.895,0,0,1.065-8.514,5.321-10.997,4.257-2.483-9.932-15.608-9.932-15.608s-.355-6.385-2.128-9.223c-1.774-2.838-39.399-21.077-57.23-17.704-15.557,2.943-35.354,28.701-39.256,31.539-3.903,2.837-7.45,9.222-3.548,13.479s4.966,21.993,5.676,27.314c.709,5.321,3.902,7.095,3.902,7.095"/><path d="M226.22411 164.8179a12.60766 12.60766 0 019.016-7.274 12.38927 12.38927 0 011.57-.177c.531.019 1.061.033 1.586.067a10.20105 10.20105 0 012.985.925 9.851 9.851 0 012.506 1.691 12.65149 12.65149 0 011.847 2.285c-.965-.305-1.753-.772-2.618-1.056a16.67962 16.67962 0 00-2.507-.729 13.93488 13.93488 0 00-2.438-.321c-.405.03-.806.04-1.205.054a10.41021 10.41021 0 00-1.197.168 18.48925 18.48925 0 00-4.744 1.646c-1.576.775-3.145 1.695-4.801 2.721M269.26459 161.80569a12.94228 12.94228 0 014.393-3.235 15.505 15.505 0 015.371-1.422 12.27835 12.27835 0 015.608.958 9.035 9.035 0 014.138 3.699 24.74322 24.74322 0 00-4.844-1.484 22.28654 22.28654 0 00-4.709-.224 83.162 83.162 0 00-9.957 1.708M237.5757 176.938c5.706 0 5.716-8.868 0-8.868-5.707 0-5.716 8.868 0 8.868M278.96039 177.29251c5.707 0 5.716-8.868 0-8.868-5.706 0-5.716 8.868 0 8.868M258.5293 180.82471a47.88355 47.88355 0 01-.86 4.867c-.34 1.555-.696 3.074-.971 4.558a16.0977 16.0977 0 00-.359 4.272 4.52114 4.52114 0 00.564 1.885 5.28623 5.28623 0 001.626 1.639 3.89965 3.89965 0 01-2.628-.614 4.84852 4.84852 0 01-1.779-2.315 10.02881 10.02881 0 01-.293-5.401 17.49894 17.49894 0 011.692-4.811 15.11162 15.11162 0 013.008-4.08M284.84769 230.34811c-6.495 7.362-12.891 11.34-18.891 13.1 0 0 15.146 1.66 18.891-1.914zM230.0674 231.40039s7.639 9.329 19.106 12.969c0 0-16.667 4.06-19.106-1.616zM256.125 300.9023c-.455 0-.904-.003-1.363-.011-37.286-.601-54.172-23.805-54.872-24.793a5.83942 5.83942 0 019.51-6.779c.604.832 14.457 19.393 45.55 19.895 31.449.522 49.948-20.128 50.131-20.336a5.83948 5.83948 0 018.809 7.668c-.873 1.006-21.56 24.356-57.765 24.356"/><path d="M209.0708 164.8179a23.3559 23.3559 0 00-4.804 6.906 12.52218 12.52218 0 00-.981 7.941 11.86763 11.86763 0 001.532 3.657 17.39655 17.39655 0 002.599 3.075 29.69084 29.69084 0 006.739 4.684l.472.253.128.586c.773 3.544 1.705 7.133 2.777 10.639 1.086 3.509 2.256 6.991 3.581 10.409 1.312 3.425 2.857 6.744 4.471 10.016a78.663 78.663 0 005.619 9.338l.276.398-.005.432-.08 6.02-.039 3.01c-.002.987-.04 2.024-.097 3.078a31.9446 31.9446 0 01-1.11 6.154 31.08968 31.08968 0 01-2.359 5.763 28.06836 28.06836 0 01-8.062 9.266 24.94107 24.94107 0 01-11.122 4.694 26.71517 26.71517 0 0010.403-5.601 27.92854 27.92854 0 007.037-9.244 31.26776 31.26776 0 001.943-5.457 29.8653 29.8653 0 00.777-5.714c.069-1.878-.018-3.967-.027-5.949l-.079-6.02.271.83a79.041 79.041 0 01-5.943-9.661 96.64041 96.64041 0 01-4.574-10.314c-1.321-3.514-2.518-7.071-3.505-10.687-.985-3.623-1.88-7.235-2.52-10.976l.599.839a31.9188 31.9188 0 01-7.013-5.351 18.92354 18.92354 0 01-2.691-3.602 12.73083 12.73083 0 01.202-12.891 21.9158 21.9158 0 015.585-6.521M305.07181 164.8179a21.905 21.905 0 015.586 6.521 12.72631 12.72631 0 01.201 12.891 18.88162 18.88162 0 01-2.691 3.602 31.871 31.871 0 01-7.013 5.351l.599-.839c-.639 3.741-1.535 7.353-2.52 10.976-.986 3.616-2.184 7.173-3.505 10.687a96.44214 96.44214 0 01-4.574 10.314 79.03325 79.03325 0 01-5.942 9.661l.27-.83-.079 6.02c-.009 1.982-.096 4.071-.027 5.949a29.78707 29.78707 0 00.778 5.714 31.26237 31.26237 0 001.942 5.457 27.94187 27.94187 0 007.037 9.244 26.71514 26.71514 0 0010.403 5.601 24.93252 24.93252 0 01-11.121-4.694 28.04566 28.04566 0 01-8.062-9.266 31.09331 31.09331 0 01-2.36-5.763 31.94538 31.94538 0 01-1.11-6.154c-.057-1.054-.095-2.091-.096-3.078l-.04-3.01-.079-6.02-.006-.432.276-.398a78.5272 78.5272 0 005.619-9.338c1.615-3.272 3.159-6.591 4.471-10.016 1.326-3.418 2.495-6.9 3.582-10.409 1.071-3.506 2.004-7.095 2.776-10.639l.128-.586.472-.253a29.7192 29.7192 0 006.74-4.684 17.43363 17.43363 0 002.598-3.075 11.89479 11.89479 0 001.533-3.657 12.52935 12.52935 0 00-.982-7.941 23.33768 23.33768 0 00-4.804-6.906"/><path fill="#fff" d="M285.231,213.26321c0,13.159-12.349,23.827-27.582,23.827s-25.034-10.916-27.582-23.827c-3.843-19.476,12.349-23.828,27.582-23.828s27.582,2.67,27.582,23.828"/><path d="M257.6489,237.96649c-14.336,0-25.5-9.63-28.441-24.534-1.365-6.918-.345-12.509,3.032-16.618,4.503-5.478,13.051-8.255,25.409-8.255,13.769,0,28.458,1.909,28.458,24.704,0,13.621-12.766,24.703-28.458,24.703m0-47.655c-11.809,0-19.902,2.562-24.055,7.615-3.029,3.685-3.926,8.788-2.667,15.167,2.104,10.666,10.366,23.121,26.722,23.121,14.726,0,26.706-10.296,26.706-22.951,0-19.197-9.792-22.952-26.706-22.952"/><path d="M242.0786,203.7886a23.29524,23.29524,0,0,1,6.086-5.213,18.77811,18.77811,0,0,1,7.725-2.691,12.72994,12.72994,0,0,1,8.043,1.878,15.40458,15.40458,0,0,1,5.332,6.026,22.20961,22.20961,0,0,0-6.008-4.838,13.03918,13.03918,0,0,0-7.205-1.323,22.0004,22.0004,0,0,0-7.244,2.147,46.11319,46.11319,0,0,0-6.729,4.014"/></g><g clip-path="url(#a)"><circle cx="256.745" cy="256" r="204.001" fill="none" stroke="#827ab9" stroke-miterlimit="10" stroke-width="10"/></g></g></svg>