<svg xmlns="http://www.w3.org/2000/svg" data-name="Layer 1" viewBox="0 0 512 512"><defs><clipPath id="a"><rect width="512" height="512" fill="none"/></clipPath><clipPath id="b"><path fill="none" d="M51.998,256c0,112.667,91.335,204.002,204.002,204.002S460.002,368.667,460.002,256,368.667,51.998,256,51.998,51.998,143.333,51.998,256"/></clipPath><clipPath id="c"><path fill="none" d="M294.007,351.485c-.194,30.735-1.53,60.133-5.539,68.152-3.272,6.544-10.956,27.548-11.689,39.319a202.65544,202.65544,0,0,0,64.9-17.765c-.191-1.087-.379-2.032-.557-2.801-2.014-8.735,3.59-37.625,10.617-67.546,7.028-29.921-1.927-69.917-1.927-69.917a166.31821,166.31821,0,0,0-37.515-16.952s-18.095,36.776-18.29,67.51"/></clipPath></defs><g clip-path="url(#a)"><g clip-path="url(#a)"><path fill="#fff9e7" d="M460.0015,256c0,112.667-91.334,204.001-204.001,204.001S51.9985,368.667,51.9985,256s91.335-204.001,204.002-204.001S460.0015,143.333,460.0015,256"/></g><g clip-path="url(#b)"><polygon points="210.515 165.233 226.363 210.798 207.592 166.357 210.515 165.233"/><polygon points="298.975 210.405 312.141 165.795 302.007 211.19 298.975 210.405"/><path d="M213.2095,176.59961s5.261-15.408,14.281-19.918c9.019-4.51,11.274-7.516,11.274-7.516s.751,8.643,0,10.898c-.752,2.255,5.261-5.261,7.892-10.898,0,0,18.038,1.879,21.045-20.294,0,0,27.809-3.382,32.319,7.893,4.51,11.273,9.771,32.694,9.02,39.835,0,0,6.012,5.637,7.14-27.434,0,0,1.127-9.02,5.637-11.65,4.51-2.631-8.03-25.531-27.434-31.568-2.269-.706-7.918-9.694-21.588-9.523-66.316.83-61.841,26.434-65.975,29.441-4.133,3.006-7.892,9.771-3.758,14.28,4.134,4.51,5.261,23.301,6.013,28.938s4.134,7.516,4.134,7.516"/><path d="M227.74071 171.33789a12.77588 12.77588 0 013.739-4.934 12.90539 12.90539 0 015.813-2.773 13.07378 13.07378 0 011.663-.186c.562.019 1.123.034 1.68.071a10.81781 10.81781 0 013.162.979 10.40868 10.40868 0 012.655 1.792 13.40542 13.40542 0 011.957 2.421c-1.022-.323-1.857-.818-2.774-1.119a17.60824 17.60824 0 00-2.656-.772 14.75089 14.75089 0 00-2.582-.34c-.429.032-.854.042-1.278.056a11.22463 11.22463 0 00-1.267.179 19.61026 19.61026 0 00-5.027 1.744c-1.669.82-3.331 1.795-5.085 2.882M273.33841 168.147a13.71114 13.71114 0 014.653-3.427 16.42971 16.42971 0 015.691-1.507 12.99972 12.99972 0 015.941 1.016 9.5656 9.5656 0 014.384 3.918 26.16564 26.16564 0 00-5.132-1.572 23.59808 23.59808 0 00-4.989-.238 46.53538 46.53538 0 00-5.124.712zM239.7666 184.17819c6.045 0 6.055-9.395 0-9.395-6.045 0-6.056 9.395 0 9.395M283.61041 184.5542c6.045 0 6.056-9.396 0-9.396-6.045 0-6.055 9.396 0 9.396"/><path fill="#f04d5a" d="M220.69341,223.311V198.02l35.486-10.663a19.283,19.283,0,0,1,11.53.137l35.693,11.654v19.825s-5.637,13.42-13.528,23.104c-7.892,9.684-39.084,18.878-58.062,0Z"/><path d="M242.1465,200.2749a23.10369,23.10369,0,0,1,7.813-6.18,23.43485,23.43485,0,0,1,9.884-2.557,20.883,20.883,0,0,1,10.011,2.274,21.96855,21.96855,0,0,1,7.618,6.463,47.22323,47.22323,0,0,0-8.576-4.215,30.07391,30.07391,0,0,0-4.451-1.094,26.66559,26.66559,0,0,0-4.524-.298,31.83008,31.83008,0,0,0-9.023,1.672,52.82554,52.82554,0,0,0-8.752,3.935"/><path d="M314.4487,168.147a37.38455,37.38455,0,0,1,5.433,8.39,20.40817,20.40817,0,0,1,2.133,9.797,13.1974,13.1974,0,0,1-1.293,4.943,15.06986,15.06986,0,0,1-3.087,4.092,26.00661,26.00661,0,0,1-8.77,5.098l.397-.487a107.36757,107.36757,0,0,1-2.425,11.965,111.67616,111.67616,0,0,1-3.753,11.62,87.79221,87.79221,0,0,1-5.244,11.074,61.71292,61.71292,0,0,1-7.208,10.004l.289-.718-.123,19.879-.093-.489a39.39508,39.39508,0,0,0,3.845,6.532,40.06975,40.06975,0,0,0,5.004,5.716,29.36242,29.36242,0,0,0,6.072,4.421l1.662.859,1.736.686.868.341.901.239,1.798.485,2.13.574-1.315,1.681-21.451,27.4a40.11964,40.11964,0,0,1-62.952.34c-7.125-9.254-14.026-18.506-21.04-27.767l-1.669-2.204,2.779-.042a17.07812,17.07812,0,0,0,3.479-.398,18.99379,18.99379,0,0,0,3.342-1.163,24.22594,24.22594,0,0,0,5.96-4.077,39.251,39.251,0,0,0,4.93-5.504,44.421,44.421,0,0,0,3.926-6.286l-.115.517.182-21.932.199.61a84.54665,84.54665,0,0,1-6.122-10.246,113.273,113.273,0,0,1-4.74-10.896c-1.384-3.707-2.613-7.467-3.657-11.277-1.045-3.813-1.963-7.644-2.666-11.551l.277.387a33.08267,33.08267,0,0,1-7.322-5.496,19.56561,19.56561,0,0,1-2.814-3.653,13.17249,13.17249,0,0,1-.016-13.234,24.05913,24.05913,0,0,1,5.652-7.039,23.881,23.881,0,0,0-5.355,7.185,13.70489,13.70489,0,0,0-1.264,8.638,13.07745,13.07745,0,0,0,1.62,4.073,18.70686,18.70686,0,0,0,2.789,3.421,32.083,32.083,0,0,0,7.248,5.136l.221.12.056.266c.793,3.812,1.811,7.609,2.946,11.348q1.728,5.60849,3.851,11.073a111.70258,111.70258,0,0,0,4.841,10.641,82.51833,82.51833,0,0,0,6.127,9.884l.197.273.002.337.183,21.932.002.275-.118.243a46.7811,46.7811,0,0,1-4.061,6.763,39.461,39.461,0,0,1-5.196,5.955,26.86273,26.86273,0,0,1-6.6,4.586,21.69828,21.69828,0,0,1-3.868,1.381,19.84361,19.84361,0,0,1-4.111.506l1.11-2.247,21.176,27.564a36.89337,36.89337,0,0,0,12.998,10.268,37.25039,37.25039,0,0,0,45.207-10.59l21.619-27.268.815,2.254-2-.553-.999-.279-.963-.382c-.639-.261-1.286-.507-1.918-.781l-1.829-.962a32.08651,32.08651,0,0,1-6.583-4.876,40.61353,40.61353,0,0,1-5.287-6.171,41.60325,41.60325,0,0,1-4.007-7.094l-.099-.227.006-.261.451-19.874.009-.412.28-.306a59.5553,59.5553,0,0,0,7.096-9.522,86.11059,86.11059,0,0,0,5.303-10.737,115.44892,115.44892,0,0,0,3.896-11.377,106.37651,106.37651,0,0,0,2.708-11.723l.063-.375.334-.112a24.96558,24.96558,0,0,0,8.538-4.65,14.23448,14.23448,0,0,0,3.007-3.766,12.46576,12.46576,0,0,0,1.343-4.635,20.40912,20.40912,0,0,0-1.802-9.597,37.21256,37.21256,0,0,0-5.101-8.536"/><path d="M209.0752 283.97459c12.974-.025 21.266-15.389 22.555-17.942.065-.456.13-.913.182-1.382v-20.918c-12.84-17.59-17.475-43.457-17.475-43.457-23.676-13.154-4.769-28.937-4.769-28.937l7.225-.22c-9.378-18.184-14.375-40.019-14.375-40.019s-21.522 44.226-17.513 84.867c4.009 40.642-4.027 80.665-12.331 84.786 0 0 24.87 2.178 42.464-8.948zM338.10251 215.9668c4.009-40.642-17.512-84.867-17.512-84.867s-4.508 19.698-12.995 37.256l6.853-.209s19.77 22.733-5.784 31.753c0 0-3.785 27.938-18.817 44.01l-.287 19.877s6.922 16.82 22.736 20.188l-9.109 11.562c20.085 12.912 47.247 5.216 47.247 5.216-8.305-4.121-16.341-44.144-12.332-84.786"/><path fill="#f04d5a" d="M427.5278,465.2344s-9.253-127.519-46.458-147.813c-37.205-20.293-68.773-33.446-68.773-33.446l-28.821,22.655a37.32435,37.32435,0,0,1-46.407-.22l-27.993-22.435s-31.568,13.153-68.773,33.446c-37.205,20.294-55.831,147.813-55.831,147.813"/><polygon points="151.201 364.021 151.201 435.424 145.94 449.705 151.201 364.021"/><polygon points="369.545 364.021 369.545 435.424 364.284 449.705 369.545 364.021"/><path fill="#f15e5f" d="M262.04791,167.52151c3.583,0,3.589-5.568,0-5.568-3.583,0-3.588,5.568,0,5.568"/><path fill="#fac847" d="M277.4722,465.2344c-3.646-7.854,6.987-37.58,10.996-45.598s5.345-37.416,5.54-68.151c.194-30.735,18.289-67.51,18.289-67.51a166.34083,166.34083,0,0,1,37.515,16.951s8.954,39.996,1.927,69.917c-7.027,29.922-12.631,58.812-10.617,67.547,2.015,8.735,5.371,40.127-.017,46.905"/></g><g clip-path="url(#c)"><path fill="#956026" d="M285.2041 321.0898c5.791 0 5.8-9 0-9-5.792 0-5.801 9 0 9M285.2041 375.52589c5.791 0 5.8-9 0-9-5.792 0-5.801 9 0 9M285.2041 429.9624c5.791 0 5.8-9 0-9-5.792 0-5.801 9 0 9M285.2041 484.3989c5.791 0 5.8-9 0-9-5.792 0-5.801 9 0 9M297.72409 293.8716c5.791 0 5.801-9 0-9-5.791 0-5.801 9 0 9M297.72409 348.30811c5.791 0 5.801-9 0-9-5.791 0-5.801 9 0 9M312.42191 321.0898c5.792 0 5.801-9 0-9-5.791 0-5.8 9 0 9M312.42191 375.52589c5.792 0 5.801-9 0-9-5.791 0-5.8 9 0 9M297.72409 402.7441c5.791 0 5.801-9 0-9-5.791 0-5.801 9 0 9M297.72409 457.1807c5.791 0 5.801-9 0-9-5.791 0-5.801 9 0 9M312.42191 429.9624c5.792 0 5.801-9 0-9-5.791 0-5.8 9 0 9M312.42191 484.3989c5.792 0 5.801-9 0-9-5.791 0-5.8 9 0 9M324.94241 293.8716c5.791 0 5.801-9 0-9-5.791 0-5.801 9 0 9M324.94241 348.30811c5.791 0 5.801-9 0-9-5.791 0-5.801 9 0 9M339.64011 321.0898c5.791 0 5.801-9 0-9-5.791 0-5.8 9 0 9M339.64011 375.52589c5.791 0 5.801-9 0-9-5.791 0-5.8 9 0 9M324.94241 402.7441c5.791 0 5.801-9 0-9-5.791 0-5.801 9 0 9M324.94241 457.1807c5.791 0 5.801-9 0-9-5.791 0-5.801 9 0 9M339.64011 429.9624c5.791 0 5.801-9 0-9-5.791 0-5.8 9 0 9M339.64011 484.3989c5.791 0 5.801-9 0-9-5.791 0-5.8 9 0 9M352.16061 293.8716c5.791 0 5.801-9 0-9-5.791 0-5.801 9 0 9M352.16061 348.30811c5.791 0 5.801-9 0-9-5.791 0-5.801 9 0 9M352.16061 402.7441c5.791 0 5.801-9 0-9-5.791 0-5.801 9 0 9M352.16061 457.1807c5.791 0 5.801-9 0-9-5.791 0-5.801 9 0 9"/></g><g clip-path="url(#b)"><path d="M234.9102 208.5015c2.192-.139 4.385-.2 6.577-.301l6.577-.173c4.385-.113 8.77-.129 13.155-.144 4.384.014 8.769.03 13.153.142l6.578.173c2.192.102 4.384.163 6.577.303-2.193.14-4.385.201-6.577.303l-6.578.173c-4.384.112-8.769.128-13.153.142-4.385-.015-8.77-.031-13.155-.144l-6.577-.173c-2.192-.101-4.385-.162-6.577-.301M232.3437 222.7305c2.569-.139 5.139-.199 7.708-.301l7.708-.173c5.139-.113 10.277-.129 15.416-.144 5.139.014 10.277.03 15.416.142l7.708.173c2.569.103 5.139.163 7.708.303-2.569.14-5.139.201-7.708.303l-7.708.173c-5.139.112-10.277.128-15.416.142-5.139-.015-10.277-.031-15.416-.144l-7.708-.172c-2.569-.102-5.139-.162-7.708-.302M242.1465 237.2319c6.9-.487 13.8-.599 20.701-.618 6.9.017 13.8.128 20.7.618-6.9.489-13.8.601-20.7.618-6.901-.02-13.801-.132-20.701-.618"/><path fill="#ffc74a" d="M211.7056 195.877c3.583 0 3.588-5.568 0-5.568-3.583 0-3.589 5.568 0 5.568M312.14059 195.877c3.583 0 3.588-5.568 0-5.568-3.583 0-3.589 5.568 0 5.568"/></g><g clip-path="url(#a)"><circle cx="256" cy="256" r="204.001" fill="none" stroke="#f04d5a" stroke-miterlimit="10" stroke-width="10"/></g></g></svg>