<svg xmlns="http://www.w3.org/2000/svg" data-name="Layer 1" viewBox="0 0 512 512"><defs><clipPath id="a"><rect width="512" height="512" fill="none"/></clipPath><clipPath id="b"><path fill="none" d="M51.998,256c0,112.667,91.335,204.002,204.002,204.002S460.002,368.667,460.002,256,368.667,51.998,256,51.998,51.998,143.333,51.998,256"/></clipPath></defs><g clip-path="url(#a)"><g clip-path="url(#a)"><path fill="#fff9e7" d="M460.0015,256c0,112.667-91.334,204.001-204.001,204.001S51.9985,368.667,51.9985,256s91.335-204.001,204.002-204.001S460.0015,143.333,460.0015,256"/></g><g clip-path="url(#b)"><polygon points="224.252 208.852 208.074 162.337 227.236 207.704 224.252 208.852"/><polygon points="299.871 207.877 313.311 162.336 302.966 208.678 299.871 207.877"/><path d="M212.31641,173.36621s5.371-15.73,14.579-20.333c9.207-4.604,11.509-7.673,11.509-7.673s.767,8.824,0,11.125c-.767,2.302,5.371-5.371,8.057-11.125,0,0,18.415,1.918,21.484-20.717,0,0,28.39-3.453,32.994,8.056,4.604,11.51,9.975,33.378,9.207,40.667,0,0,6.139,5.755,7.29-28.006,0,0,1.151-9.208,5.755-11.893,4.603-2.686-10.743-16.881-10.743-16.881s-.383-6.906-2.302-9.975c-1.918-3.069-12.66-4.604-14.962-5.371s-3.069-9.207-6.906-9.207c-3.836,0-8.44,1.918-13.811-4.988-5.371-6.905-13.427,0-13.427,0s-3.453,3.069-9.975,1.918c-6.522-1.15-6.906-4.987-13.428,1.919-6.522,6.905-5.371,7.673-13.044,6.905-7.673-.767-11.893,2.302-12.277,8.057-.383,5.755-2.302,12.66-6.522,15.73-4.22,3.069-8.057,9.974-3.836,14.578,4.22,4.604,5.371,23.786,6.138,29.541s4.22,7.673,4.22,7.673"/><path d="M227.15089 167.99509a13.6414 13.6414 0 019.75-7.887 10.75026 10.75026 0 016.662.861 11.05354 11.05354 0 014.689 4.34 31.26327 31.26327 0 00-5.531-1.972 13.32823 13.32823 0 00-5.245-.084 19.3646 19.3646 0 00-5.137 1.788c-1.709.837-3.396 1.845-5.188 2.954M273.7002 164.7373a13.99746 13.99746 0 014.75-3.499 16.81727 16.81727 0 015.81-1.538 13.27944 13.27944 0 016.065 1.037 9.77529 9.77529 0 014.476 4 26.738 26.738 0 00-5.24-1.605 24.1106 24.1106 0 00-5.093-.242 47.26865 47.26865 0 00-5.23.727zM239.4277 181.103c6.171 0 6.182-9.591 0-9.591-6.171 0-6.182 9.591 0 9.591M284.18649 181.4866c6.171 0 6.182-9.591 0-9.591-6.171 0-6.182 9.591 0 9.591"/><path fill="#827ab9" d="M219.9565,221.05219v-25.818l42.133-12.661,42.303,13.812v20.239s-5.755,13.7-13.812,23.586c-8.057,9.885-39.899,19.271-59.273,0Z"/><path d="M241.85741 197.53589a23.5697 23.5697 0 017.976-6.309 23.90333 23.90333 0 0110.09-2.61 22.63253 22.63253 0 015.275.522 21.399 21.399 0 014.946 1.799 22.43655 22.43655 0 017.776 6.598 48.21184 48.21184 0 00-8.755-4.303 30.82791 30.82791 0 00-4.544-1.117 27.15591 27.15591 0 00-4.618-.304 32.44494 32.44494 0 00-9.211 1.707 53.84346 53.84346 0 00-8.935 4.017M262.08981 197.53589a50.82363 50.82363 0 011.252 7.769c.235 2.589.344 5.179.346 7.769q.00449 3.88349-.341 7.769a50.46 50.46 0 01-1.257 7.768 50.214 50.214 0 01-1.257-7.768q-.351-3.885-.341-7.769c.002-2.59.111-5.18.345-7.769a50.94888 50.94888 0 011.253-7.769M293.55371 216.99371a10.16651 10.16651 0 11-10.167-10.167 10.16712 10.16712 0 0110.167 10.167M208.59911 167.99509a25.91345 25.91345 0 00-5.111 7.513 13.71146 13.71146 0 00-1.012 8.519 14.66315 14.66315 0 004.442 7.196 34.12206 34.12206 0 007.254 5.045l.572.307.151.705c.821 3.826 1.824 7.708 2.94 11.508 1.145 3.803 2.388 7.575 3.783 11.286q1.04549 2.784 2.238 5.504c.769 1.824 1.597 3.621 2.47 5.395a87.3274 87.3274 0 005.923 10.24l.233.342-.008.345c-.048 1.866-.123 3.732-.204 5.598-.082 1.866-.141 3.732-.25 5.597-.19 3.732-.405 7.464-.713 11.195-.308-3.731-.523-7.463-.713-11.195-.109-1.865-.168-3.731-.25-5.597-.081-1.866-.156-3.732-.203-5.598l.224.688c-1.235-1.628-2.418-3.296-3.521-5.014-1.087-1.726-2.118-3.488-3.071-5.288a97.0933 97.0933 0 01-5.073-11.089 119.24391 119.24391 0 01-3.877-11.535 114.57931 114.57931 0 01-2.783-11.87l.723 1.012a33.21274 33.21274 0 01-7.633-5.798 16.17362 16.17362 0 01-4.569-8.614 13.55423 13.55423 0 01.16-4.914 16.9526 16.9526 0 011.739-4.478 23.34653 23.34653 0 016.139-7.005M315.668 164.7373a34.88434 34.88434 0 015.937 8.394 20.90883 20.90883 0 012.486 10.231 13.74816 13.74816 0 01-1.326 5.341 15.52735 15.52735 0 01-3.268 4.453 26.87466 26.87466 0 01-9.235 5.409l.986-1.212a102.65079 102.65079 0 01-2.572 12.309 101.32773 101.32773 0 01-3.996 11.896 78.03669 78.03669 0 01-5.62 11.264 55.42237 55.42237 0 01-7.704 10.009l.295-.734c-.193 3.38-.348 6.76-.591 10.139q-.321 5.0685-.799 10.136-.3285-5.079-.507-10.155c-.145-3.385-.202-6.768-.298-10.152l-.011-.381.307-.353a54.67369 54.67369 0 003.711-4.77c1.127-1.675 2.199-3.386 3.195-5.146a90.16771 90.16771 0 005.145-11.005 120.60354 120.60354 0 003.818-11.583 114.88733 114.88733 0 002.657-11.876l.158-.934.829-.278a24.74368 24.74368 0 008.444-4.53 13.02956 13.02956 0 002.944-3.579 12.43782 12.43782 0 001.385-4.434 20.50927 20.50927 0 00-1.545-9.573 41.63956 41.63956 0 00-4.825-8.886"/><path fill="#fac847" d="M431.1069,468.0239s-9.447-130.18-47.428-150.897-70.207-34.145-70.207-34.145l-23.211-22.635-15.154,30.692v8.824l-13.812,24.937h-1.022l-13.812-24.937v-8.824l-15.154-30.692-23.21,22.635s-32.227,13.428-70.208,34.145-56.996,150.897-56.996,150.897"/><polygon points="208.097 282.982 219.957 324.032 246.462 291.039 246.462 299.863 218.072 334.007 204.762 284.406 208.097 282.982"/><polygon points="313.462 282.982 301.602 324.032 275.097 291.039 275.097 299.863 303.487 334.007 316.796 284.406 313.462 282.982"/><path d="M260.27249,324.79961c.662,8.92,1.007,17.84,1.243,26.76.147,4.459.18,8.919.266,13.379l.089,13.38-.084,13.379c-.09,4.46-.118,8.92-.266,13.38-.235,8.92-.582,17.84-1.248,26.76-.666-8.92-1.013-17.84-1.248-26.76-.148-4.46-.176-8.92-.266-13.38l-.084-13.379.089-13.38c.086-4.46.119-8.92.266-13.379.236-8.92.581-17.84,1.243-26.76"/><polygon points="149.015 364.699 149.015 437.592 143.644 452.17 149.015 364.699"/><polygon points="371.914 364.699 371.914 437.592 366.543 452.17 371.914 364.699"/></g><g clip-path="url(#a)"><circle cx="256" cy="256" r="204.001" fill="none" stroke="#fac847" stroke-miterlimit="10" stroke-width="10"/></g></g></svg>